<?xml version="1.0" encoding="utf-8"?>
<!DOCTYPE svg PUBLIC "-//W3C//DTD SVG 20010904//EN" "http://www.w3.org/TR/2001/REC-SVG-20010904/DTD/svg10.dtd">
<svg version="1.0" xmlns="http://www.w3.org/2000/svg" width="1000px" height="1000px" viewBox="0 0 1000 1000" preserveAspectRatio="xMidYMid meet">
 <g fill="none" stroke="#fafafb" stroke-width="1">
  <path d="M0 500 l0 -500 500 0 500 0 0 500 0 500 -500 0 -500 0 0 -500z m96.6 418.8 c-0.3 -3.5 -0.9 -13.2 -1.2 -21.5 l-0.7 -15.3 29.5 0 c30.5 0 40.7 -0.8 54.3 -4.2 22.7 -5.6 35.1 -19.3 36.3 -39.9 1.3 -23.7 -10 -37.6 -36 -43.9 -11.1 -2.8 -34.8 -3.7 -80.3 -3.2 l-36 0.4 0 66.9 0 66.9 17.4 0 17.4 0 -0.7 -6.2z m795.4 -15.3 c13.1 -1.7 23.4 -4.5 33.8 -8.9 34.1 -14.4 49.9 -44.1 39.8 -75 -5.7 -17.2 -15.8 -28.3 -34.1 -37.1 -23.2 -11.2 -36.2 -12.8 -94 -11.9 l-43 0.7 0 66.8 0 66.9 43.5 0 c32.1 0 46.3 -0.4 54 -1.5z m-124.2 -60.7 c-0.8 -1.3 -4.8 -8.1 -8.8 -15.3 -4.1 -7.1 -11.5 -20 -16.6 -28.5 -14.8 -25.2 -21.4 -37.6 -21.4 -40.8 0 -2.9 0.1 -2.9 7 -3.6 3.9 -0.4 19.7 -0.4 35.2 0 l28.2 0.7 -1.7 -2.6 c-1 -1.5 -4.7 -8 -8.3 -14.4 -3.6 -6.5 -9.4 -16.5 -12.8 -22.3 -3.5 -5.8 -10.5 -17.9 -15.6 -27 -5.2 -9.1 -13.1 -22.7 -17.6 -30.2 -4.6 -7.5 -11.2 -18.8 -14.7 -25 -3.5 -6.2 -13.3 -23.4 -21.9 -38.3 -8.5 -14.8 -19 -33.3 -23.3 -41 -4.3 -7.7 -11.3 -19.8 -15.5 -27 -4.3 -7.1 -13.3 -22.7 -20 -34.5 -6.7 -11.8 -17.8 -30.7 -24.5 -42 -6.7 -11.3 -15.5 -26.3 -19.5 -33.5 -4 -7.1 -10.1 -17.7 -13.5 -23.5 -8.6 -14.5 -17.6 -30.2 -26 -45.5 -4 -7.1 -11.4 -20.2 -16.5 -29 -5.1 -8.8 -12.1 -21 -15.5 -27 -3.4 -6.1 -8 -14 -10.2 -17.5 -2.1 -3.6 -6.1 -10.4 -8.8 -15.2 -2.7 -4.9 -5.1 -8.8 -5.4 -8.8 -0.3 0 -2.4 3.3 -4.5 7.3 -2.2 3.9 -9.2 16.2 -15.6 27.2 -16.7 28.6 -34.3 59.1 -41.8 72.5 -3.6 6.3 -10.2 17.8 -14.7 25.5 -4.5 7.7 -9.9 17.2 -12 21 -2.1 3.9 -8.6 15.1 -14.5 25 -5.9 9.9 -14.2 24.3 -18.5 32 -4.3 7.7 -11.9 20.8 -16.8 29 -10.3 17.1 -20.5 34.8 -31.7 55 -4.2 7.7 -13.3 23.5 -20.2 35 -6.8 11.6 -16.6 28.5 -21.8 37.5 -5.1 9.1 -14.3 25.1 -20.5 35.5 -6.2 10.5 -16.6 28.5 -23 40 -6.5 11.6 -17.1 29.9 -23.6 40.8 -6.6 10.9 -11.9 20.1 -11.9 20.4 0 0.3 10.2 0.4 22.8 0.2 12.5 -0.1 28.2 -0.2 35 -0.1 l12.2 0.2 0 3.3 c0 2.4 -2.7 8 -9.6 19.8 -5.3 9 -15.3 26.3 -22.1 38.4 -6.9 12.1 -13.4 23.2 -14.4 24.7 -1.1 1.4 -1.9 2.9 -1.9 3.2 0 0.3 121.1 0.6 269.1 0.6 l269.1 0 -1.4 -2.2z m-328.2 -618.5 c-0.3 -1.6 -0.8 -24.1 -1.2 -50 l-0.7 -47.3 3.5 0 c4 0 2.9 -1.8 12.5 20.5 7.9 18.2 18.7 45.3 25.3 62.9 2.7 7.2 5.2 13.9 5.5 14.9 0.6 1.5 2.3 1.7 15 1.7 l14.3 0 5.6 -14.2 c3 -7.9 8.4 -21.7 11.9 -30.8 3.5 -9.1 10.2 -25.2 14.7 -35.7 l8.4 -19.3 3.4 0 3.4 0 -0.3 50 -0.4 50 17.3 0 17.2 0 -0.7 -11.2 c-0.5 -6.2 -0.8 -36.1 -0.8 -66.3 l0 -55.1 -25.2 0.1 c-21.5 0 -25.4 0.2 -25.9 1.5 -0.3 0.8 -2.7 7.8 -5.4 15.5 -7 20.3 -19 50.6 -27.2 68.8 -7 15.5 -7.1 15.7 -10.3 15.7 -2.8 0 -3.4 -0.5 -4.7 -3.7 -0.8 -2.1 -4.3 -10.4 -7.7 -18.5 -6.9 -16.6 -18.2 -46.7 -24.7 -66.3 l-4.3 -13 -25.8 -0.1 -25.8 -0.1 0 66.3 0 66.4 16.9 0 16.8 0 -0.6 -2.7z"/>
  <path d="M104.3 865.3 l-9.3 -0.4 0 -27.3 0 -27.3 12.8 -0.6 c45.7 -2.4 65.6 1.6 72 14.3 1.7 3.5 2.2 6.1 2.2 12.6 0 16 -5 22.3 -21.5 26.9 -6.2 1.8 -35.1 2.7 -56.2 1.8z"/>
  <path d="M840 885.8 c-6.3 -0.5 -11.7 -1.2 -12 -1.5 -0.3 -0.2 -0.6 -21.8 -0.8 -47.9 l-0.3 -47.4 16.8 -0.2 c36.8 -0.6 47.2 0.2 60.3 4.4 21.1 6.7 32 21.7 32 43.8 0 24.4 -13.2 40.1 -39.5 47.1 -6.5 1.7 -11.5 2.2 -26.5 2.4 -10.2 0.2 -23.7 -0.1 -30 -0.7z"/>
  <path d="M443.1 737.2 l-33.4 -0.2 0.6 -15.8 c1.6 -39.4 1.8 -65.2 0.8 -96.1 -0.6 -18.4 -0.9 -33.6 -0.8 -33.7 0.1 -0.2 24.3 -0.4 53.7 -0.6 47.9 -0.3 54.5 -0.1 63 1.5 14.9 2.8 23.7 5.5 33.9 10.4 7.9 3.8 10.8 5.9 18.1 13.1 14.6 14.5 18.5 25.9 17.7 51.2 -0.5 17.2 -2.2 23.1 -9.9 34.6 -11.2 16.7 -27.8 26.1 -56.2 31.9 -17.2 3.5 -33.4 4.2 -87.5 3.7z m58 -31.3 c18.4 -1.8 34.5 -9.4 43 -20.1 4.3 -5.5 7.9 -15.6 7.9 -22.2 0 -12.7 -8.6 -26.8 -20.5 -33.6 -13.9 -8 -28.4 -10.4 -55.7 -9.4 l-19.8 0.7 0 41.7 0 41.8 13.3 0.9 c18.9 1.4 20.4 1.4 31.8 0.2z"/>
 </g>
 <g fill="#54397c">
  <path d="M225 847.2 c0 -0.5 1.6 -3.5 3.6 -6.8 2 -3.2 9.1 -15.6 15.9 -27.4 6.8 -11.8 16.6 -28.9 21.9 -38 8.6 -14.7 9.5 -16.5 7.6 -16.8 -2.1 -0.3 -2.7 -1.7 -1.1 -2.6 0.5 -0.3 3.2 -4.7 6.1 -9.8 2.9 -5.1 7.8 -13.1 11 -17.8 3.1 -4.7 6.8 -11 8.2 -14 3.8 -8.5 22.1 -41.2 30.5 -54.5 4.1 -6.6 12.3 -20.8 18.2 -31.5 17.3 -31.4 26.2 -47.2 29.6 -52.5 5.3 -8.5 31.7 -54.7 34.4 -60.5 1.5 -3 4.7 -8.4 7.2 -12 4.8 -6.8 7.2 -10.9 23.4 -40 5.4 -9.6 11.5 -20 13.5 -23 2.1 -3 5.4 -8.8 7.5 -12.9 2 -4.1 8.3 -15.1 13.9 -24.5 5.7 -9.4 12.4 -21 15 -25.9 4.7 -8.6 4.7 -8.7 8.6 -8.7 3.7 0 3.9 0.2 8.7 8 2.6 4.4 6.8 11.7 9.3 16.3 2.5 4.5 5.5 9.6 6.6 11.2 1.2 1.7 3.6 5.9 5.4 9.5 1.8 3.6 5.1 9.2 7.3 12.5 2.3 3.3 5.6 9.1 7.5 13 1.8 3.8 4.6 9 6.1 11.5 10.1 16.5 36.1 63.2 36.1 64.9 0 0.5 2.2 4.3 4.9 8.4 2.8 4.2 6.7 10.9 8.7 14.9 2 4 6.3 11.1 9.4 15.8 3.2 4.7 7.2 11.4 9 15 1.8 3.6 7 12.7 11.6 20.2 4.6 7.5 10 17 12 21 2 4 4.6 8.6 5.7 10.2 5.9 8.4 31.1 51.2 38.6 65.6 4.8 9.1 11.4 20.8 14.7 26.1 3.4 5.3 8.8 14.3 11.9 20 3.2 5.7 7.7 13.7 10.1 17.6 2.4 4 4.4 7.5 4.4 7.7 0 0.3 -0.9 0.6 -1.9 0.8 -1.7 0.3 -1 1.9 5.3 13.3 3.9 7.2 11 19.5 15.7 27.5 12.4 20.8 27.9 47.9 27.9 48.5 0 0.3 -123.7 0.5 -275 0.5 -151.2 0 -275 -0.4 -275 -0.8z m302.2 -116.6 c29 -5.9 45.4 -15.2 56.6 -32 7.1 -10.7 9.3 -17.7 9.9 -31.6 0.9 -21.8 -3.7 -34.2 -17.7 -48.2 -7.3 -7.2 -10.2 -9.3 -18.1 -13.1 -10.2 -4.9 -19.1 -7.6 -33.9 -10.4 -8.4 -1.6 -15.1 -1.7 -60 -1.5 -27.8 0.2 -50.5 0.4 -50.6 0.5 -0.1 0.1 0.3 13.3 0.8 29.2 0.9 27.7 0.5 75.1 -0.9 99.2 l-0.6 11.3 32.9 0.2 c47.4 0.4 66.1 -0.4 81.6 -3.6z"/>
  <path d="M466.3 708.7 l-13.3 -0.9 0 -44.8 0 -44.8 22.3 -0.7 c23.8 -0.8 32.5 -0.1 45.2 3.6 22.2 6.5 34.5 21.6 34.5 42.5 0 15.1 -6 26.3 -18.7 34.6 -15.8 10.5 -33.7 13.2 -70 10.5z"/>
 </g>
 <g fill="#8b64c5">
  <path d="M203 756.9 c0 -0.6 5.1 -9.4 11.4 -19.7 6.3 -10.3 15.8 -26.6 21.1 -36.2 12.1 -21.7 15 -26.8 29 -50.5 6.2 -10.4 15.4 -26.4 20.5 -35.5 5.2 -9 15 -25.9 21.8 -37.5 6.9 -11.5 16 -27.3 20.2 -35 11.2 -20.2 21.4 -37.9 31.7 -55 4.9 -8.2 12.5 -21.3 16.8 -29 4.3 -7.7 12.6 -22.1 18.5 -32 5.9 -9.9 12.4 -21.1 14.5 -25 2.1 -3.8 7.5 -13.3 12 -21 4.5 -7.7 11.1 -19.2 14.7 -25.5 7.6 -13.6 25.5 -44.7 41.8 -72.5 6.4 -11 14.1 -24.4 16.9 -29.7 2.9 -5.4 5.6 -9.8 6.1 -9.8 0.4 0 3.6 5.1 7.1 11.3 3.5 6.1 8.1 14.1 10.2 17.7 2.2 3.5 6.8 11.4 10.2 17.5 3.4 6 10.4 18.2 15.5 27 5.1 8.8 12.5 21.9 16.5 29 8.4 15.3 17.4 31 26 45.5 3.4 5.8 9.5 16.4 13.5 23.5 4 7.2 12.8 22.2 19.5 33.5 6.7 11.3 17.8 30.2 24.5 42 6.7 11.8 15.7 27.4 20 34.5 4.2 7.2 11.2 19.3 15.5 27 4.3 7.7 14.8 26.2 23.3 41 8.6 14.9 18.4 32.1 21.9 38.3 3.5 6.2 10.1 17.5 14.7 25 4.5 7.5 12.4 21.1 17.6 30.2 5.1 9.1 13 22.8 17.5 30.5 18.5 31.5 23.3 40 22.8 40.8 -0.3 0.4 -16.8 0.7 -36.7 0.5 l-36.3 -0.3 -2 -3.5 c-1.1 -1.9 -5.6 -9.8 -10 -17.5 -4.3 -7.7 -10.3 -17.8 -13.3 -22.5 -3 -4.7 -9.3 -15.9 -14.1 -25 -7.5 -14.4 -32.7 -57.3 -38.6 -65.6 -1.1 -1.6 -3.7 -6.2 -5.7 -10.2 -2 -4 -7.4 -13.5 -12 -21 -4.6 -7.5 -9.8 -16.6 -11.6 -20.2 -1.8 -3.6 -5.8 -10.3 -9 -15 -3.1 -4.7 -7.4 -11.8 -9.4 -15.8 -2 -4 -5.9 -10.7 -8.7 -14.9 -2.7 -4.1 -4.9 -7.9 -4.9 -8.4 0 -1.7 -26 -48.4 -36.1 -64.9 -1.5 -2.5 -4.3 -7.7 -6.1 -11.5 -1.9 -3.9 -5.2 -9.7 -7.5 -13 -2.2 -3.3 -5.5 -8.9 -7.3 -12.5 -1.8 -3.6 -4.5 -8.3 -6 -10.5 -1.5 -2.2 -4.4 -7.1 -6.4 -11 -4.9 -9.3 -13.3 -22.9 -14.5 -23.3 -0.5 -0.2 -3.1 3.7 -5.7 8.5 -2.6 4.8 -9.3 16.5 -15 25.9 -5.6 9.4 -11.9 20.4 -13.9 24.5 -2.1 4.1 -5.4 9.9 -7.5 12.9 -2 3 -8.1 13.4 -13.5 23 -16.2 29.1 -18.6 33.2 -23.4 40 -2.5 3.6 -5.7 9 -7.2 12 -2.7 5.8 -29.1 52 -34.4 60.5 -3.4 5.3 -12.3 21.1 -29.6 52.5 -5.9 10.7 -14.1 24.9 -18.2 31.5 -8.4 13.3 -26.7 46 -30.5 54.5 -1.4 3 -5.1 9.3 -8.2 14 -3.2 4.7 -8.1 12.6 -10.9 17.7 l-5.2 9.1 -37 0.1 c-25.1 0 -36.9 -0.3 -36.9 -1z"/>
 </g>
 <g fill="#07143e">
  <path d="M58.9 927.6 c-0.2 -0.3 -0.1 -6.2 0.4 -13.3 0.8 -12.9 0.5 -121.5 -0.3 -124.3 -0.4 -1.3 4.3 -1.6 37 -2.1 46 -0.8 74.2 0.2 85.8 3.1 25.6 6.2 36.3 18.9 36.3 43 0 11.7 -1.2 17.6 -5.3 25.2 -7.3 13.8 -22 21.4 -47.7 24.7 -4.6 0.6 -21.6 1.1 -37.8 1.1 l-29.3 0 0 6.3 c0.1 5.9 1.2 19.9 2.6 31.5 l0.6 5.2 -20.9 0 c-11.5 0 -21.2 -0.2 -21.4 -0.4z m98.6 -67.1 c15.4 -4.3 21.5 -11.1 21.5 -23.9 0 -10.3 -7.5 -19 -18.7 -21.5 -10.6 -2.4 -26.9 -3.4 -44.5 -2.6 l-17.8 0.7 0 24.4 0 24.3 9.3 0.4 c19.4 0.8 44 -0.1 50.2 -1.8z"/>
  <path d="M790.9 907.6 c-0.2 -0.3 -0.1 -6 0.4 -12.8 0.8 -12.3 0.5 -122 -0.3 -124.8 -0.4 -1.3 5.1 -1.6 43 -2.4 61.7 -1.2 77.3 0.6 100.5 11.9 18.3 8.9 28.5 19.9 34.1 37.1 2.6 7.9 2.9 10.3 2.9 21.4 0 10.4 -0.4 13.6 -2.3 19 -9.4 27.2 -34.9 44.2 -74.2 49.5 -7.8 1.1 -22.3 1.5 -57.1 1.5 -25.6 0 -46.8 -0.2 -47 -0.4z m102.6 -26.5 c17.2 -4.5 29.8 -13.6 35 -25.2 9.3 -20.7 2.9 -43.3 -15.4 -54.3 -14.1 -8.5 -27.4 -10.4 -66.4 -9.8 l-16.8 0.2 0.3 44.4 c0.2 24.4 0.5 44.7 0.8 44.9 1.2 1.2 24.7 2.5 39 2.2 11.8 -0.2 17.4 -0.8 23.5 -2.4z"/>
  <path d="M402.9 229.6 c-0.3 -0.3 -0.1 -5.6 0.4 -11.8 0.8 -11.5 0.5 -123.1 -0.3 -125.7 -0.4 -1.3 1.4 -1.4 11.5 -1 14.7 0.5 35.4 0.2 41.6 -0.6 l4.7 -0.5 2.2 7.2 c5.5 18.4 23 64.5 34.7 91.7 l1.9 4.4 7.1 -15.9 c8.6 -19 18.3 -43.4 26.9 -67.8 3.4 -9.8 6.7 -18.2 7.1 -18.6 0.4 -0.4 5.9 -0.3 12.1 0.3 7.8 0.7 16.6 0.7 28 0 9.2 -0.6 16.8 -1 16.9 -0.9 0.1 0.1 -0.3 7.2 -0.8 15.7 -1.1 15.2 -0.6 98 0.7 115.7 l0.6 8.2 -20.4 0 c-11.3 0 -20.7 -0.2 -20.9 -0.4 -0.2 -0.3 -0.1 -6.6 0.4 -14.2 0.4 -7.5 0.6 -29.9 0.5 -49.7 l-0.3 -36 -8.4 19.4 c-4.6 10.7 -11.3 26.8 -14.8 35.9 -3.5 9.1 -8.9 22.9 -11.9 30.8 l-5.6 14.2 -17.3 0 c-15.5 0 -17.4 -0.2 -18 -1.7 -0.3 -1 -2.8 -7.7 -5.5 -14.9 -9.8 -26.3 -29.6 -74.4 -33.5 -81.1 -1.5 -2.6 -1.6 0.3 -1 40.2 0.3 23.7 0.8 46.3 1.2 50.3 l0.6 7.2 -20 0 c-11 0 -20.2 -0.2 -20.4 -0.4z"/>
 </g>
</svg>